<svg width="268" height="268" viewBox="0 0 268 268" fill="none" xmlns="http://www.w3.org/2000/svg">
<path d="M135.047 7.32812C89.3534 7.32812 52.3438 44.3374 52.3438 89.9842C52.3438 126.511 76.0382 157.487 108.892 168.404C113.027 169.182 114.543 166.627 114.543 164.43C114.543 162.467 114.474 157.266 114.44 150.378C91.4348 155.365 86.5828 139.288 86.5828 139.288C82.8199 129.749 77.3821 127.2 77.3821 127.2C69.8906 122.075 77.961 122.179 77.961 122.179C86.2658 122.757 90.6284 130.692 90.6284 130.692C98.0028 143.332 109.988 139.681 114.716 137.566C115.46 132.221 117.59 128.578 119.954 126.511C101.587 124.445 82.2823 117.336 82.2823 85.6654C82.2823 76.6421 85.487 69.2719 90.7938 63.486C89.8634 61.3989 87.0722 52.9956 91.5175 41.6097C91.5175 41.6097 98.4439 39.3918 114.261 50.082C120.877 48.2429 127.907 47.3336 134.937 47.2923C141.966 47.3336 148.996 48.2429 155.612 50.082C171.326 39.3918 178.252 41.6097 178.252 41.6097C182.698 52.9956 179.906 61.3989 179.079 63.486C184.352 69.2719 187.556 76.6421 187.556 85.6654C187.556 117.419 168.225 124.41 149.823 126.442C152.718 128.922 155.406 133.992 155.406 141.734C155.406 152.796 155.302 161.681 155.302 164.368C155.302 166.537 156.75 169.12 160.988 168.294C194.076 157.452 217.75 126.456 217.75 89.9842C217.75 44.3374 180.72 7.32812 135.047 7.32812Z" fill="black"/>
<path d="M20.6972 255.438L23.8189 244.254H38.9358L42.1153 255.438H48.1562L34.947 212.516H27.8655L14.6562 255.438H20.6972ZM36.6406 239.734H24.0781L30.3594 217.75L36.6406 239.734ZM69.813 256.484C71.333 256.484 72.8205 256.274 74.2755 255.853C75.7306 255.432 77.144 254.8 78.5156 253.958V248.347C77.3108 249.561 76.004 250.457 74.5953 251.035C73.1866 251.613 71.5925 251.902 69.813 251.902C66.6248 251.902 64.1642 250.8 62.4311 248.597C60.698 246.394 59.8314 243.265 59.8314 239.211C59.8314 235.137 60.6934 232.004 62.4172 229.81C64.141 227.617 66.6063 226.52 69.813 226.52C71.5369 226.52 73.08 226.804 74.4424 227.372C75.8048 227.94 77.1625 228.861 78.5156 230.134V224.464C77.0698 223.602 75.6333 222.966 74.206 222.554C72.7788 222.143 71.3144 221.938 69.813 221.938C64.9937 221.938 61.2263 223.465 58.5108 226.52C55.7953 229.575 54.4375 233.806 54.4375 239.211C54.4375 244.616 55.7953 248.846 58.5108 251.902C61.2263 254.957 64.9937 256.484 69.813 256.484ZM112.016 255.438V251.264H106.243C104.068 251.264 102.544 250.8 101.67 249.873C100.796 248.945 100.359 247.308 100.359 244.961V227.698H112.016V223.638H100.359V214.609H95.2284V223.638H86.8906V227.698H95.2284V244.961C95.2284 248.803 96.0185 251.51 97.5987 253.081C99.1789 254.652 101.893 255.438 105.741 255.438H112.016ZM141.328 217.75V211.469H136.094V217.75H141.328ZM151.797 255.438V251.413H141.345V224.031H127.858V228.056H136.077V251.413H125.625V255.438H151.797ZM171.673 256.484C176.101 256.484 179.478 255.011 181.806 252.063C184.133 249.116 185.297 244.832 185.297 239.211C185.297 233.61 184.128 229.331 181.792 226.373C179.455 223.416 176.082 221.938 171.673 221.938C167.265 221.938 163.897 223.416 161.569 226.373C159.242 229.331 158.078 233.61 158.078 239.211C158.078 244.832 159.242 249.116 161.569 252.063C163.897 255.011 167.265 256.484 171.673 256.484ZM171.673 251.25C168.925 251.25 166.845 250.233 165.432 248.198C164.019 246.164 163.312 243.168 163.312 239.211C163.312 235.235 164.019 232.235 165.432 230.21C166.845 228.184 168.925 227.172 171.673 227.172C174.44 227.172 176.53 228.184 177.943 230.21C179.356 232.235 180.062 235.235 180.062 239.211C180.062 243.168 179.356 246.164 177.943 248.198C176.53 250.233 174.44 251.25 171.673 251.25ZM199.894 255.438V237.527C199.894 234.302 200.546 231.826 201.849 230.1C203.153 228.374 205.014 227.511 207.433 227.511C209.552 227.511 211.108 228.181 212.102 229.52C213.096 230.86 213.593 232.953 213.593 235.802V255.438H218.797V235.802C218.797 231.501 218.005 228.289 216.42 226.167C214.835 224.045 212.44 222.984 209.233 222.984C207.077 222.984 205.211 223.451 203.636 224.385C202.06 225.319 200.813 226.691 199.894 228.502V223.748H194.719V255.438H199.894ZM241.818 256.484C245.764 256.484 248.847 255.569 251.064 253.738C253.282 251.907 254.391 249.365 254.391 246.114C254.391 243.666 253.728 241.679 252.403 240.151C251.078 238.623 249.128 237.605 246.554 237.096L244.468 236.685C241.029 235.999 238.877 235.294 238.012 234.569C237.148 233.845 236.715 232.748 236.715 231.279C236.715 229.654 237.293 228.444 238.449 227.651C239.605 226.858 241.357 226.461 243.707 226.461C245.266 226.461 246.798 226.687 248.302 227.137C249.805 227.588 251.299 228.263 252.784 229.164V223.876C251.28 223.23 249.749 222.745 248.189 222.422C246.629 222.099 245.003 221.938 243.312 221.938C239.516 221.938 236.593 222.794 234.545 224.508C232.496 226.222 231.472 228.655 231.472 231.808C231.472 234.295 232.158 236.259 233.53 237.698C234.902 239.137 237.082 240.161 240.07 240.768L242.015 241.179L242.241 241.238C246.845 242.198 249.147 243.931 249.147 246.438C249.147 248.181 248.518 249.537 247.259 250.506C245.999 251.476 244.223 251.96 241.931 251.96C240.352 251.96 238.679 251.701 236.913 251.182C235.146 250.663 233.295 249.884 231.359 248.846V254.428C233.351 255.113 235.203 255.628 236.913 255.97C238.623 256.313 240.258 256.484 241.818 256.484Z" fill="#6A737D"/>
</svg>
